<mxfile host="app.diagrams.net" modified="2020-12-14T14:45:33.135Z" agent="5.0 (Windows NT 10.0; Win64; x64) AppleWebKit/537.36 (KHTML, like Gecko) Chrome/86.0.4240.198 Safari/537.36 OPR/72.0.3815.400" etag="7TAd8XD2lSoBkFMTjwv8" version="14.0.1" type="github">
  <diagram id="dejC8xX66NXGGqEdCbtm" name="Page-1">
    <mxGraphModel dx="1024" dy="3005" grid="1" gridSize="10" guides="1" tooltips="1" connect="1" arrows="1" fold="1" page="1" pageScale="1" pageWidth="850" pageHeight="1100" background="none" math="0" shadow="0">
      <root>
        <mxCell id="0" />
        <mxCell id="1" parent="0" />
        <mxCell id="wKeTZpyMlNqquont4m5I-223" value="" style="group" parent="1" vertex="1" connectable="0">
          <mxGeometry x="2070" y="-780" width="250" height="312" as="geometry" />
        </mxCell>
        <mxCell id="wKeTZpyMlNqquont4m5I-213" value="&lt;p style=&quot;margin: 0px ; margin-top: 4px ; text-align: center&quot;&gt;&lt;b&gt;ControllerHomepageAdmin&lt;/b&gt;&lt;/p&gt;&lt;hr size=&quot;1&quot;&gt;&lt;p style=&quot;margin: 0px 0px 0px 4px&quot;&gt;- rootPane: AnchorPane&lt;/p&gt;&lt;p style=&quot;margin: 0px 0px 0px 4px&quot;&gt;- treeView: TreeView&amp;lt;String&amp;gt;&lt;/p&gt;&lt;p style=&quot;margin: 0px 0px 0px 4px&quot;&gt;- name: Text&lt;/p&gt;&lt;p style=&quot;margin: 0px 0px 0px 4px&quot;&gt;- currentUser: User&lt;/p&gt;&lt;hr size=&quot;1&quot;&gt;&lt;p style=&quot;margin: 0px ; margin-left: 4px&quot;&gt;+ initData(User): void&lt;/p&gt;&lt;p style=&quot;margin: 0px ; margin-left: 4px&quot;&gt;+ displayEmployees(ActionEvent): void&lt;/p&gt;&lt;p style=&quot;margin: 0px ; margin-left: 4px&quot;&gt;+ displayOrders(ActionEvent): void&lt;/p&gt;&lt;p style=&quot;margin: 0px ; margin-left: 4px&quot;&gt;+ displayUsers(ActionEvent): void&lt;/p&gt;&lt;p style=&quot;margin: 0px ; margin-left: 4px&quot;&gt;+ displayWines(ActionEvent): void&lt;/p&gt;&lt;p style=&quot;margin: 0px ; margin-left: 4px&quot;&gt;+ loadEmployee(ActionEvent): void&lt;/p&gt;&lt;p style=&quot;margin: 0px ; margin-left: 4px&quot;&gt;+ loadUser(ActionEvent): void&lt;/p&gt;&lt;p style=&quot;margin: 0px ; margin-left: 4px&quot;&gt;+ loadAddEmployee(ActionEvent): void&lt;/p&gt;&lt;p style=&quot;margin: 0px ; margin-left: 4px&quot;&gt;+ logout(ActionEvent): void&lt;/p&gt;" style="verticalAlign=top;align=left;overflow=fill;fontSize=12;fontFamily=Helvetica;html=1;strokeColor=#0000CC;" parent="wKeTZpyMlNqquont4m5I-223" vertex="1">
          <mxGeometry x="10" y="80" width="220" height="232" as="geometry" />
        </mxCell>
        <mxCell id="wKeTZpyMlNqquont4m5I-222" value="" style="group" parent="wKeTZpyMlNqquont4m5I-223" vertex="1" connectable="0">
          <mxGeometry x="90" width="70" height="80" as="geometry" />
        </mxCell>
        <mxCell id="wKeTZpyMlNqquont4m5I-195" value="Controller" style="text;html=1;align=center;verticalAlign=middle;resizable=0;points=[];autosize=1;" parent="wKeTZpyMlNqquont4m5I-222" vertex="1">
          <mxGeometry width="70" height="20" as="geometry" />
        </mxCell>
        <mxCell id="wKeTZpyMlNqquont4m5I-159" value="" style="ellipse;fillColor=#ffffff;strokeColor=#000000;rotation=90;" parent="wKeTZpyMlNqquont4m5I-222" vertex="1">
          <mxGeometry x="20" y="30" width="30" height="30" as="geometry" />
        </mxCell>
        <mxCell id="wKeTZpyMlNqquont4m5I-216" value="" style="endArrow=none;html=1;entryX=0.5;entryY=0;entryDx=0;entryDy=0;" parent="wKeTZpyMlNqquont4m5I-222" edge="1">
          <mxGeometry x="36.70999999999998" y="-50" width="50" height="50" as="geometry">
            <mxPoint x="35.00000000000023" y="50" as="sourcePoint" />
            <mxPoint x="35.00000000000023" y="80" as="targetPoint" />
          </mxGeometry>
        </mxCell>
        <mxCell id="wKeTZpyMlNqquont4m5I-217" value="" style="ellipse;fillColor=#ffffff;strokeColor=#000000;rotation=90;" parent="wKeTZpyMlNqquont4m5I-222" vertex="1">
          <mxGeometry x="20" y="30" width="30" height="30" as="geometry" />
        </mxCell>
        <mxCell id="wKeTZpyMlNqquont4m5I-218" value="" style="endArrow=none;html=1;entryX=0.5;entryY=0;entryDx=0;entryDy=0;" parent="wKeTZpyMlNqquont4m5I-222" edge="1">
          <mxGeometry x="36.70999999999998" y="-50" width="50" height="50" as="geometry">
            <mxPoint x="35.00000000000023" y="50" as="sourcePoint" />
            <mxPoint x="35.00000000000023" y="80" as="targetPoint" />
          </mxGeometry>
        </mxCell>
        <mxCell id="wKeTZpyMlNqquont4m5I-219" value="" style="ellipse;fillColor=#ffffff;strokeColor=#000000;rotation=90;" parent="wKeTZpyMlNqquont4m5I-222" vertex="1">
          <mxGeometry x="20" y="30" width="30" height="30" as="geometry" />
        </mxCell>
        <mxCell id="wKeTZpyMlNqquont4m5I-220" value="" style="endArrow=none;html=1;entryX=0.5;entryY=0;entryDx=0;entryDy=0;" parent="wKeTZpyMlNqquont4m5I-222" edge="1">
          <mxGeometry x="36.70999999999998" y="-50" width="50" height="50" as="geometry">
            <mxPoint x="35.00000000000023" y="50" as="sourcePoint" />
            <mxPoint x="35.00000000000023" y="80" as="targetPoint" />
          </mxGeometry>
        </mxCell>
        <mxCell id="wKeTZpyMlNqquont4m5I-221" value="" style="ellipse;fillColor=#ffffff;strokeColor=#000000;rotation=90;" parent="wKeTZpyMlNqquont4m5I-222" vertex="1">
          <mxGeometry x="20" y="30" width="30" height="30" as="geometry" />
        </mxCell>
        <mxCell id="wKeTZpyMlNqquont4m5I-230" value="" style="group" parent="1" vertex="1" connectable="0">
          <mxGeometry x="1450" y="-1890" width="200" height="272" as="geometry" />
        </mxCell>
        <mxCell id="wKeTZpyMlNqquont4m5I-162" value="" style="group" parent="wKeTZpyMlNqquont4m5I-230" vertex="1" connectable="0">
          <mxGeometry y="30" width="200" height="242" as="geometry" />
        </mxCell>
        <mxCell id="jC_Wdxe36F_O-iLtIrg6-13" value="&lt;p style=&quot;margin: 0px ; margin-top: 4px ; text-align: center&quot;&gt;&lt;b&gt;ControllerAddWine&lt;/b&gt;&lt;/p&gt;&lt;hr size=&quot;1&quot;&gt;&lt;p style=&quot;margin: 0px ; margin-left: 4px&quot;&gt;- rootPane: AnchorPane&lt;/p&gt;&lt;p style=&quot;margin: 0px ; margin-left: 4px&quot;&gt;- name: TextField&lt;/p&gt;&lt;p style=&quot;margin: 0px ; margin-left: 4px&quot;&gt;- year: TextField&lt;/p&gt;&lt;p style=&quot;margin: 0px ; margin-left: 4px&quot;&gt;- producer: TextField&lt;/p&gt;&lt;p style=&quot;margin: 0px ; margin-left: 4px&quot;&gt;- grapes: TextField&lt;/p&gt;&lt;p style=&quot;margin: 0px ; margin-left: 4px&quot;&gt;- notes: TextArea&lt;/p&gt;&lt;p style=&quot;margin: 0px ; margin-left: 4px&quot;&gt;- currentUser: User&lt;/p&gt;&lt;hr size=&quot;1&quot;&gt;&lt;p style=&quot;margin: 0px ; margin-left: 4px&quot;&gt;+ initData(User): void&lt;/p&gt;&lt;p style=&quot;margin: 0px ; margin-left: 4px&quot;&gt;+ addWine(ActionEvent): void&lt;/p&gt;&lt;p style=&quot;margin: 0px ; margin-left: 4px&quot;&gt;+ back(ActionEvent): void&lt;/p&gt;" style="verticalAlign=top;align=left;overflow=fill;fontSize=12;fontFamily=Helvetica;html=1;strokeColor=#EA6B66;" parent="wKeTZpyMlNqquont4m5I-162" vertex="1">
          <mxGeometry x="15" y="50" width="170" height="192" as="geometry" />
        </mxCell>
        <mxCell id="wKeTZpyMlNqquont4m5I-224" value="" style="group" parent="wKeTZpyMlNqquont4m5I-162" vertex="1" connectable="0">
          <mxGeometry x="85" y="-1.7763568394002505e-15" width="50" height="50" as="geometry" />
        </mxCell>
        <mxCell id="wKeTZpyMlNqquont4m5I-160" value="" style="endArrow=none;html=1;entryX=0.5;entryY=0;entryDx=0;entryDy=0;" parent="wKeTZpyMlNqquont4m5I-224" edge="1">
          <mxGeometry x="1.7099999999999795" y="-70" width="50" height="50" as="geometry">
            <mxPoint x="15" y="30" as="sourcePoint" />
            <mxPoint x="15" y="50" as="targetPoint" />
          </mxGeometry>
        </mxCell>
        <mxCell id="wKeTZpyMlNqquont4m5I-161" value="" style="ellipse;fillColor=#ffffff;strokeColor=#000000;rotation=90;" parent="wKeTZpyMlNqquont4m5I-224" vertex="1">
          <mxGeometry y="1.7763568394002505e-15" width="30" height="30" as="geometry" />
        </mxCell>
        <mxCell id="wKeTZpyMlNqquont4m5I-194" value="Controller" style="text;html=1;align=center;verticalAlign=middle;resizable=0;points=[];autosize=1;" parent="wKeTZpyMlNqquont4m5I-230" vertex="1">
          <mxGeometry x="65" width="70" height="20" as="geometry" />
        </mxCell>
        <mxCell id="wKeTZpyMlNqquont4m5I-260" value="" style="group" parent="1" vertex="1" connectable="0">
          <mxGeometry x="2330" y="-1080" width="190" height="252" as="geometry" />
        </mxCell>
        <mxCell id="wKeTZpyMlNqquont4m5I-179" value="" style="group" parent="wKeTZpyMlNqquont4m5I-260" vertex="1" connectable="0">
          <mxGeometry y="30" width="190" height="222" as="geometry" />
        </mxCell>
        <mxCell id="jC_Wdxe36F_O-iLtIrg6-20" value="&lt;p style=&quot;margin: 0px ; margin-top: 4px ; text-align: center&quot;&gt;&lt;b&gt;ControllerRegister&lt;/b&gt;&lt;/p&gt;&lt;hr size=&quot;1&quot;&gt;&lt;p style=&quot;margin: 0px ; margin-left: 4px&quot;&gt;- rootPane: AnchorPane&lt;/p&gt;&lt;p style=&quot;margin: 0px 0px 0px 4px&quot;&gt;- name: TextField&lt;/p&gt;&lt;p style=&quot;margin: 0px 0px 0px 4px&quot;&gt;- surname: TextField&lt;br&gt;&lt;/p&gt;&lt;p style=&quot;margin: 0px 0px 0px 4px&quot;&gt;- email: TextField&lt;br&gt;&lt;/p&gt;&lt;p style=&quot;margin: 0px 0px 0px 4px&quot;&gt;- password: PasswordField&lt;/p&gt;&lt;p style=&quot;margin: 0px ; margin-left: 4px&quot;&gt;- currentUser: User&lt;/p&gt;&lt;hr size=&quot;1&quot;&gt;&lt;p style=&quot;margin: 0px ; margin-left: 4px&quot;&gt;+ initData(User): void&lt;/p&gt;&lt;p style=&quot;margin: 0px ; margin-left: 4px&quot;&gt;+ isMail(String): Boolean&lt;/p&gt;&lt;p style=&quot;margin: 0px ; margin-left: 4px&quot;&gt;+ register(ActionEvent): void&lt;/p&gt;" style="verticalAlign=top;align=left;overflow=fill;fontSize=12;fontFamily=Helvetica;html=1;strokeColor=#4A74FF;" parent="wKeTZpyMlNqquont4m5I-179" vertex="1">
          <mxGeometry x="15" y="50" width="160" height="172" as="geometry" />
        </mxCell>
        <mxCell id="wKeTZpyMlNqquont4m5I-149" value="" style="endArrow=none;html=1;entryX=0.5;entryY=0;entryDx=0;entryDy=0;" parent="wKeTZpyMlNqquont4m5I-179" target="jC_Wdxe36F_O-iLtIrg6-20" edge="1">
          <mxGeometry x="77" y="-80" width="50" height="50" as="geometry">
            <mxPoint x="95" y="30" as="sourcePoint" />
            <mxPoint x="90" y="37" as="targetPoint" />
          </mxGeometry>
        </mxCell>
        <mxCell id="wKeTZpyMlNqquont4m5I-150" value="" style="ellipse;fillColor=#ffffff;strokeColor=#000000;rotation=90;" parent="wKeTZpyMlNqquont4m5I-179" vertex="1">
          <mxGeometry x="80" width="30" height="30" as="geometry" />
        </mxCell>
        <mxCell id="wKeTZpyMlNqquont4m5I-190" value="Controller" style="text;html=1;align=center;verticalAlign=middle;resizable=0;points=[];autosize=1;" parent="wKeTZpyMlNqquont4m5I-260" vertex="1">
          <mxGeometry x="60" width="70" height="20" as="geometry" />
        </mxCell>
        <mxCell id="wKeTZpyMlNqquont4m5I-261" value="" style="group" parent="1" vertex="1" connectable="0">
          <mxGeometry x="1125" y="-1660" width="220" height="242" as="geometry" />
        </mxCell>
        <mxCell id="wKeTZpyMlNqquont4m5I-180" value="" style="group" parent="wKeTZpyMlNqquont4m5I-261" vertex="1" connectable="0">
          <mxGeometry y="30" width="220" height="212" as="geometry" />
        </mxCell>
        <mxCell id="jC_Wdxe36F_O-iLtIrg6-19" value="&lt;p style=&quot;margin: 0px ; margin-top: 4px ; text-align: center&quot;&gt;&lt;b&gt;ControllerLogin&lt;/b&gt;&lt;/p&gt;&lt;hr size=&quot;1&quot;&gt;&lt;p style=&quot;margin: 0px ; margin-left: 4px&quot;&gt;- rootPane: AnchorPane&lt;/p&gt;&lt;p style=&quot;margin: 0px ; margin-left: 4px&quot;&gt;- email: TextField&lt;/p&gt;&lt;p style=&quot;margin: 0px ; margin-left: 4px&quot;&gt;- password: PasswordField&lt;/p&gt;&lt;p style=&quot;margin: 0px ; margin-left: 4px&quot;&gt;- currentUser: User&lt;/p&gt;&lt;hr size=&quot;1&quot;&gt;&lt;p style=&quot;margin: 0px ; margin-left: 4px&quot;&gt;+ isMail(String): Boolean&lt;/p&gt;&lt;p style=&quot;margin: 0px ; margin-left: 4px&quot;&gt;+ loadRegister(ActionEvent): void&lt;/p&gt;&lt;p style=&quot;margin: 0px ; margin-left: 4px&quot;&gt;+ login(ActionEvent): void&lt;/p&gt;&lt;p style=&quot;margin: 0px ; margin-left: 4px&quot;&gt;+ guestLogin(ActionEvent): void&lt;/p&gt;" style="verticalAlign=top;align=left;overflow=fill;fontSize=12;fontFamily=Helvetica;html=1;strokeColor=#7EA6E0;" parent="wKeTZpyMlNqquont4m5I-180" vertex="1">
          <mxGeometry x="30" y="50" width="190" height="162" as="geometry" />
        </mxCell>
        <mxCell id="wKeTZpyMlNqquont4m5I-151" value="" style="endArrow=none;html=1;entryX=0.5;entryY=0;entryDx=0;entryDy=0;exitX=1;exitY=0.5;exitDx=0;exitDy=0;" parent="wKeTZpyMlNqquont4m5I-180" target="jC_Wdxe36F_O-iLtIrg6-19" edge="1" source="wKeTZpyMlNqquont4m5I-152">
          <mxGeometry x="72" y="-90" width="50" height="50" as="geometry">
            <mxPoint x="110" y="30" as="sourcePoint" />
            <mxPoint x="90" y="40" as="targetPoint" />
          </mxGeometry>
        </mxCell>
        <mxCell id="wKeTZpyMlNqquont4m5I-152" value="" style="ellipse;fillColor=#ffffff;strokeColor=#000000;rotation=90;" parent="wKeTZpyMlNqquont4m5I-180" vertex="1">
          <mxGeometry x="110" width="30" height="30" as="geometry" />
        </mxCell>
        <mxCell id="wKeTZpyMlNqquont4m5I-191" value="Controller" style="text;html=1;align=center;verticalAlign=middle;resizable=0;points=[];autosize=1;" parent="wKeTZpyMlNqquont4m5I-261" vertex="1">
          <mxGeometry x="75" width="70" height="20" as="geometry" />
        </mxCell>
        <mxCell id="wKeTZpyMlNqquont4m5I-269" value="" style="group" parent="1" vertex="1" connectable="0">
          <mxGeometry x="1850" y="-399" width="275" height="78" as="geometry" />
        </mxCell>
        <mxCell id="wKeTZpyMlNqquont4m5I-122" value="" style="endArrow=none;html=1;exitX=1;exitY=0.5;exitDx=0;exitDy=0;exitPerimeter=0;entryX=0;entryY=0.5;entryDx=0;entryDy=0;" parent="wKeTZpyMlNqquont4m5I-269" edge="1">
          <mxGeometry width="50" height="50" as="geometry">
            <mxPoint x="90" y="39" as="sourcePoint" />
            <mxPoint x="115" y="39" as="targetPoint" />
          </mxGeometry>
        </mxCell>
        <mxCell id="wKeTZpyMlNqquont4m5I-130" value="" style="group" parent="wKeTZpyMlNqquont4m5I-269" vertex="1" connectable="0">
          <mxGeometry width="275" height="78" as="geometry" />
        </mxCell>
        <mxCell id="jC_Wdxe36F_O-iLtIrg6-5" value="App" style="swimlane;fontStyle=0;childLayout=stackLayout;horizontal=1;startSize=26;fillColor=none;horizontalStack=0;resizeParent=1;resizeParentMax=0;resizeLast=0;collapsible=1;marginBottom=0;" parent="wKeTZpyMlNqquont4m5I-130" vertex="1">
          <mxGeometry x="115" width="125" height="78" as="geometry">
            <mxRectangle x="60" y="-960" width="50" height="26" as="alternateBounds" />
          </mxGeometry>
        </mxCell>
        <mxCell id="jC_Wdxe36F_O-iLtIrg6-7" value="+ start(Stage): void" style="text;strokeColor=none;fillColor=none;align=left;verticalAlign=top;spacingLeft=4;spacingRight=4;overflow=hidden;rotatable=0;points=[[0,0.5],[1,0.5]];portConstraint=eastwest;" parent="jC_Wdxe36F_O-iLtIrg6-5" vertex="1">
          <mxGeometry y="26" width="125" height="26" as="geometry" />
        </mxCell>
        <mxCell id="jC_Wdxe36F_O-iLtIrg6-8" value="+ main(String[]): void" style="text;strokeColor=none;fillColor=none;align=left;verticalAlign=top;spacingLeft=4;spacingRight=4;overflow=hidden;rotatable=0;points=[[0,0.5],[1,0.5]];portConstraint=eastwest;" parent="jC_Wdxe36F_O-iLtIrg6-5" vertex="1">
          <mxGeometry y="52" width="125" height="26" as="geometry" />
        </mxCell>
        <mxCell id="wKeTZpyMlNqquont4m5I-7" value="Application" style="text;html=1;align=center;verticalAlign=middle;resizable=0;points=[];autosize=1;" parent="wKeTZpyMlNqquont4m5I-130" vertex="1">
          <mxGeometry y="29" width="70" height="20" as="geometry" />
        </mxCell>
        <mxCell id="wKeTZpyMlNqquont4m5I-123" value="" style="ellipse;fillColor=#ffffff;strokeColor=#000000;" parent="wKeTZpyMlNqquont4m5I-130" vertex="1">
          <mxGeometry x="70" y="24" width="30" height="30" as="geometry" />
        </mxCell>
        <mxCell id="wKeTZpyMlNqquont4m5I-273" style="edgeStyle=orthogonalEdgeStyle;rounded=0;orthogonalLoop=1;jettySize=auto;html=1;entryX=0;entryY=0.5;entryDx=0;entryDy=0;exitX=1;exitY=0.5;exitDx=0;exitDy=0;strokeColor=#579191;" parent="1" source="jC_Wdxe36F_O-iLtIrg6-15" target="UXMgXP9CzdIKXv9W3ZQB-112" edge="1">
          <mxGeometry relative="1" as="geometry">
            <Array as="points">
              <mxPoint x="1340" y="-940" />
              <mxPoint x="1490" y="-940" />
              <mxPoint x="1490" y="-1189" />
            </Array>
            <mxPoint x="1360" y="-920" as="sourcePoint" />
            <mxPoint x="1615" y="-1187" as="targetPoint" />
          </mxGeometry>
        </mxCell>
        <mxCell id="wKeTZpyMlNqquont4m5I-101" value="" style="endArrow=none;html=1;exitX=1;exitY=0.5;exitDx=0;exitDy=0;entryX=-0.001;entryY=0.126;entryDx=0;entryDy=0;entryPerimeter=0;startArrow=none;startFill=0;endFill=0;" parent="1" source="UXMgXP9CzdIKXv9W3ZQB-107" target="UXMgXP9CzdIKXv9W3ZQB-86" edge="1">
          <mxGeometry x="1610" y="-1470" width="50" height="50" as="geometry">
            <mxPoint x="1775" y="-1317" as="sourcePoint" />
            <mxPoint x="2025" y="-1316" as="targetPoint" />
          </mxGeometry>
        </mxCell>
        <mxCell id="wKeTZpyMlNqquont4m5I-102" value="0..*" style="text;html=1;strokeColor=none;fillColor=none;align=center;verticalAlign=middle;whiteSpace=wrap;rounded=0;" parent="1" vertex="1">
          <mxGeometry x="1995" y="-1340" width="20" height="20" as="geometry" />
        </mxCell>
        <mxCell id="wKeTZpyMlNqquont4m5I-105" value="" style="endArrow=none;html=1;entryX=0.074;entryY=1.003;entryDx=0;entryDy=0;exitX=0.25;exitY=0;exitDx=0;exitDy=0;entryPerimeter=0;endFill=0;startArrow=classic;startFill=1;" parent="1" source="UXMgXP9CzdIKXv9W3ZQB-62" target="UXMgXP9CzdIKXv9W3ZQB-113" edge="1">
          <mxGeometry x="1610" y="-1470" width="50" height="50" as="geometry">
            <mxPoint x="1695" y="-1100" as="sourcePoint" />
            <mxPoint x="1695" y="-1170" as="targetPoint" />
          </mxGeometry>
        </mxCell>
        <mxCell id="wKeTZpyMlNqquont4m5I-107" value="0..*" style="text;html=1;strokeColor=none;fillColor=none;align=center;verticalAlign=middle;whiteSpace=wrap;rounded=0;" parent="1" vertex="1">
          <mxGeometry x="1625" y="-1120" width="20" height="20" as="geometry" />
        </mxCell>
        <mxCell id="wKeTZpyMlNqquont4m5I-109" value="0..*" style="text;html=1;strokeColor=none;fillColor=none;align=center;verticalAlign=middle;whiteSpace=wrap;rounded=0;" parent="1" vertex="1">
          <mxGeometry x="1995" y="-1100" width="20" height="20" as="geometry" />
        </mxCell>
        <mxCell id="wKeTZpyMlNqquont4m5I-113" value="1..*" style="text;html=1;strokeColor=none;fillColor=none;align=center;verticalAlign=middle;whiteSpace=wrap;rounded=0;" parent="1" vertex="1">
          <mxGeometry x="1825" y="-1060" width="20" height="20" as="geometry" />
        </mxCell>
        <mxCell id="wKeTZpyMlNqquont4m5I-265" value="" style="group" parent="1" vertex="1" connectable="0">
          <mxGeometry x="1775" y="-840" width="260" height="312" as="geometry" />
        </mxCell>
        <mxCell id="jC_Wdxe36F_O-iLtIrg6-12" value="&lt;p style=&quot;margin: 0px ; margin-top: 4px ; text-align: center&quot;&gt;&lt;b&gt;ControllerCart&lt;/b&gt;&lt;/p&gt;&lt;hr size=&quot;1&quot;&gt;&lt;p style=&quot;margin: 0px ; margin-left: 4px&quot;&gt;-&lt;span&gt;&amp;nbsp;rootPane: AnchorPane&lt;/span&gt;&lt;/p&gt;&lt;p style=&quot;margin: 0px 0px 0px 4px&quot;&gt;- tableView: TableView&amp;lt;Wine&amp;gt;&lt;/p&gt;&lt;p style=&quot;margin: 0px 0px 0px 4px&quot;&gt;- nameColumn: TableColumn&amp;lt;Wine, String&amp;gt;&lt;/p&gt;&lt;p style=&quot;margin: 0px 0px 0px 4px&quot;&gt;- yearColumn: TableColumn&amp;lt;Wine, Integer&amp;gt;&lt;/p&gt;&lt;p style=&quot;margin: 0px 0px 0px 4px&quot;&gt;- producerColumn: TableColumn&amp;lt;Wine, String&amp;gt;&lt;/p&gt;&lt;p style=&quot;margin: 0px 0px 0px 4px&quot;&gt;- quantityColumn: TableColumn&amp;lt;Wine, Integer&amp;gt;&lt;/p&gt;&lt;p style=&quot;margin: 0px ; margin-left: 4px&quot;&gt;- currentUser: User&lt;/p&gt;&lt;hr size=&quot;1&quot;&gt;&lt;p style=&quot;margin: 0px ; margin-left: 4px&quot;&gt;+ initData(User): void&lt;/p&gt;&lt;p style=&quot;margin: 0px ; margin-left: 4px&quot;&gt;+ addToTable(ArrayList&amp;lt;Wine&amp;gt;): void&lt;/p&gt;&lt;p style=&quot;margin: 0px ; margin-left: 4px&quot;&gt;+ back(ActionEvent): void&lt;/p&gt;&lt;p style=&quot;margin: 0px ; margin-left: 4px&quot;&gt;+ buy(ActionEvent): void&lt;/p&gt;&lt;p style=&quot;margin: 0px ; margin-left: 4px&quot;&gt;+ displayCart(ActionEvent): void&lt;/p&gt;&lt;p style=&quot;margin: 0px ; margin-left: 4px&quot;&gt;+ removeFromCart(ActionEvent): void&lt;/p&gt;" style="verticalAlign=top;align=left;overflow=fill;fontSize=12;fontFamily=Helvetica;html=1;strokeColor=#00FF00;" parent="wKeTZpyMlNqquont4m5I-265" vertex="1">
          <mxGeometry y="80" width="260" height="232" as="geometry" />
        </mxCell>
        <mxCell id="wKeTZpyMlNqquont4m5I-188" value="" style="endArrow=none;html=1;entryX=0.5;entryY=0;entryDx=0;entryDy=0;" parent="wKeTZpyMlNqquont4m5I-265" target="jC_Wdxe36F_O-iLtIrg6-12" edge="1">
          <mxGeometry x="-1273.3400000000001" y="950" width="50" height="50" as="geometry">
            <mxPoint x="130" y="60" as="sourcePoint" />
            <mxPoint x="129.66000000000008" y="60" as="targetPoint" />
          </mxGeometry>
        </mxCell>
        <mxCell id="wKeTZpyMlNqquont4m5I-189" value="" style="ellipse;fillColor=#ffffff;strokeColor=#000000;rotation=90;" parent="wKeTZpyMlNqquont4m5I-265" vertex="1">
          <mxGeometry x="115" y="30" width="30" height="30" as="geometry" />
        </mxCell>
        <mxCell id="wKeTZpyMlNqquont4m5I-264" value="Controller" style="text;html=1;align=center;verticalAlign=middle;resizable=0;points=[];autosize=1;" parent="wKeTZpyMlNqquont4m5I-265" vertex="1">
          <mxGeometry x="95" width="70" height="20" as="geometry" />
        </mxCell>
        <mxCell id="ZOYg5p0cv3gOobGNT6kV-1" style="rounded=0;orthogonalLoop=1;jettySize=auto;html=1;exitX=0.25;exitY=0;exitDx=0;exitDy=0;edgeStyle=orthogonalEdgeStyle;entryX=1;entryY=0.5;entryDx=0;entryDy=0;strokeColor=#00FF00;" parent="1" source="jC_Wdxe36F_O-iLtIrg6-12" target="UXMgXP9CzdIKXv9W3ZQB-72" edge="1">
          <mxGeometry relative="1" as="geometry">
            <mxPoint x="2080" y="-890" as="targetPoint" />
            <Array as="points">
              <mxPoint x="1840" y="-845" />
            </Array>
          </mxGeometry>
        </mxCell>
        <mxCell id="ZOYg5p0cv3gOobGNT6kV-2" style="edgeStyle=orthogonalEdgeStyle;rounded=0;orthogonalLoop=1;jettySize=auto;html=1;entryX=1;entryY=0.5;entryDx=0;entryDy=0;exitX=0.363;exitY=-0.001;exitDx=0;exitDy=0;exitPerimeter=0;strokeColor=#00FF00;" parent="1" source="jC_Wdxe36F_O-iLtIrg6-12" target="UXMgXP9CzdIKXv9W3ZQB-110" edge="1">
          <mxGeometry relative="1" as="geometry">
            <mxPoint x="1870" y="-770" as="sourcePoint" />
            <mxPoint x="1775" y="-1239" as="targetPoint" />
            <Array as="points">
              <mxPoint x="1860" y="-760" />
              <mxPoint x="1860" y="-1241" />
            </Array>
          </mxGeometry>
        </mxCell>
        <mxCell id="ZOYg5p0cv3gOobGNT6kV-3" style="edgeStyle=orthogonalEdgeStyle;rounded=0;orthogonalLoop=1;jettySize=auto;html=1;jumpStyle=arc;jumpSize=15;entryX=0;entryY=0.5;entryDx=0;entryDy=0;strokeColor=#00FF00;" parent="1" target="UXMgXP9CzdIKXv9W3ZQB-99" edge="1">
          <mxGeometry relative="1" as="geometry">
            <mxPoint x="1870" y="-760" as="sourcePoint" />
            <mxPoint x="2050" y="-1000" as="targetPoint" />
            <Array as="points">
              <mxPoint x="1860" y="-760" />
              <mxPoint x="1860" y="-989" />
            </Array>
          </mxGeometry>
        </mxCell>
        <mxCell id="ZOYg5p0cv3gOobGNT6kV-9" style="edgeStyle=orthogonalEdgeStyle;rounded=0;orthogonalLoop=1;jettySize=auto;html=1;entryX=0.25;entryY=0;entryDx=0;entryDy=0;jumpStyle=arc;jumpSize=15;exitX=1;exitY=0.5;exitDx=0;exitDy=0;strokeColor=#579191;" parent="1" source="jC_Wdxe36F_O-iLtIrg6-15" target="UXMgXP9CzdIKXv9W3ZQB-83" edge="1">
          <mxGeometry relative="1" as="geometry">
            <Array as="points">
              <mxPoint x="1340" y="-940" />
              <mxPoint x="1490" y="-940" />
              <mxPoint x="1490" y="-1490" />
              <mxPoint x="2090" y="-1490" />
            </Array>
            <mxPoint x="2065" y="-1420" as="targetPoint" />
          </mxGeometry>
        </mxCell>
        <mxCell id="ZOYg5p0cv3gOobGNT6kV-10" style="edgeStyle=orthogonalEdgeStyle;rounded=0;jumpStyle=arc;jumpSize=15;orthogonalLoop=1;jettySize=auto;html=1;entryX=0.25;entryY=0;entryDx=0;entryDy=0;strokeColor=#7EA6E0;" parent="1" target="UXMgXP9CzdIKXv9W3ZQB-101" edge="1">
          <mxGeometry relative="1" as="geometry">
            <Array as="points">
              <mxPoint x="1345" y="-1520" />
              <mxPoint x="1660" y="-1520" />
            </Array>
            <mxPoint x="1345" y="-1520" as="sourcePoint" />
            <mxPoint x="1655" y="-1460" as="targetPoint" />
          </mxGeometry>
        </mxCell>
        <mxCell id="ZOYg5p0cv3gOobGNT6kV-11" style="edgeStyle=orthogonalEdgeStyle;rounded=0;jumpStyle=arc;jumpSize=15;orthogonalLoop=1;jettySize=auto;html=1;exitX=0;exitY=0.25;exitDx=0;exitDy=0;entryX=0.75;entryY=0;entryDx=0;entryDy=0;strokeColor=#4A74FF;" parent="1" source="jC_Wdxe36F_O-iLtIrg6-20" target="UXMgXP9CzdIKXv9W3ZQB-101" edge="1">
          <mxGeometry relative="1" as="geometry">
            <Array as="points">
              <mxPoint x="2310" y="-957" />
              <mxPoint x="2310" y="-1530" />
              <mxPoint x="1770" y="-1530" />
            </Array>
            <mxPoint x="1735" y="-1460" as="targetPoint" />
          </mxGeometry>
        </mxCell>
        <mxCell id="ZOYg5p0cv3gOobGNT6kV-12" style="edgeStyle=orthogonalEdgeStyle;rounded=0;jumpStyle=arc;jumpSize=15;orthogonalLoop=1;jettySize=auto;html=1;exitX=0.25;exitY=1;exitDx=0;exitDy=0;entryX=0.5;entryY=0;entryDx=0;entryDy=0;strokeColor=#9933FF;" parent="1" source="wKeTZpyMlNqquont4m5I-249" target="UXMgXP9CzdIKXv9W3ZQB-101" edge="1">
          <mxGeometry relative="1" as="geometry">
            <Array as="points">
              <mxPoint x="1810" y="-1570" />
              <mxPoint x="1715" y="-1570" />
            </Array>
            <mxPoint x="1695" y="-1460" as="targetPoint" />
          </mxGeometry>
        </mxCell>
        <mxCell id="ZOYg5p0cv3gOobGNT6kV-14" style="edgeStyle=orthogonalEdgeStyle;rounded=0;jumpStyle=arc;jumpSize=15;orthogonalLoop=1;jettySize=auto;html=1;exitX=0.75;exitY=1;exitDx=0;exitDy=0;entryX=0.75;entryY=0;entryDx=0;entryDy=0;strokeColor=#9933FF;" parent="1" source="wKeTZpyMlNqquont4m5I-249" target="UXMgXP9CzdIKXv9W3ZQB-83" edge="1">
          <mxGeometry relative="1" as="geometry">
            <Array as="points">
              <mxPoint x="1950" y="-1570" />
              <mxPoint x="2220" y="-1570" />
            </Array>
            <mxPoint x="2145" y="-1420" as="targetPoint" />
          </mxGeometry>
        </mxCell>
        <mxCell id="ZOYg5p0cv3gOobGNT6kV-15" style="edgeStyle=orthogonalEdgeStyle;rounded=0;jumpStyle=arc;jumpSize=15;orthogonalLoop=1;jettySize=auto;html=1;exitX=0.5;exitY=1;exitDx=0;exitDy=0;entryX=0;entryY=0;entryDx=0;entryDy=0;strokeColor=#EA6B66;" parent="1" source="jC_Wdxe36F_O-iLtIrg6-13" target="UXMgXP9CzdIKXv9W3ZQB-101" edge="1">
          <mxGeometry relative="1" as="geometry">
            <Array as="points">
              <mxPoint x="1550" y="-1550" />
              <mxPoint x="1605" y="-1550" />
            </Array>
            <mxPoint x="1637.0800000000004" y="-1460.8700000000001" as="targetPoint" />
          </mxGeometry>
        </mxCell>
        <mxCell id="ZOYg5p0cv3gOobGNT6kV-16" style="edgeStyle=orthogonalEdgeStyle;rounded=0;jumpStyle=arc;jumpSize=15;orthogonalLoop=1;jettySize=auto;html=1;entryX=0.5;entryY=0;entryDx=0;entryDy=0;startArrow=none;startFill=0;noJump=0;comic=0;strokeColor=#EA6B66;" parent="1" target="UXMgXP9CzdIKXv9W3ZQB-83" edge="1">
          <mxGeometry relative="1" as="geometry">
            <Array as="points">
              <mxPoint x="1550" y="-1618" />
              <mxPoint x="1550" y="-1550" />
              <mxPoint x="2155" y="-1550" />
            </Array>
            <mxPoint x="1550" y="-1618" as="sourcePoint" />
            <mxPoint x="2105" y="-1420" as="targetPoint" />
          </mxGeometry>
        </mxCell>
        <mxCell id="ZOYg5p0cv3gOobGNT6kV-17" style="edgeStyle=orthogonalEdgeStyle;rounded=0;comic=0;jumpStyle=arc;jumpSize=15;orthogonalLoop=1;jettySize=auto;html=1;exitX=0.805;exitY=-0.002;exitDx=0;exitDy=0;entryX=0;entryY=0.5;entryDx=0;entryDy=0;startArrow=none;startFill=0;exitPerimeter=0;strokeColor=#B5739D;" parent="1" source="jC_Wdxe36F_O-iLtIrg6-10" target="UXMgXP9CzdIKXv9W3ZQB-104" edge="1">
          <mxGeometry relative="1" as="geometry">
            <Array as="points">
              <mxPoint x="1543" y="-1371" />
            </Array>
            <mxPoint x="1615" y="-1369" as="targetPoint" />
          </mxGeometry>
        </mxCell>
        <mxCell id="ZOYg5p0cv3gOobGNT6kV-19" value="" style="group" parent="1" vertex="1" connectable="0">
          <mxGeometry x="1370" y="-410" width="530" height="100" as="geometry" />
        </mxCell>
        <mxCell id="jC_Wdxe36F_O-iLtIrg6-4" value="&lt;p style=&quot;margin: 0px ; margin-top: 4px ; text-align: center&quot;&gt;&lt;i&gt;&amp;lt;&amp;lt;Interface&amp;gt;&amp;gt;&lt;/i&gt;&lt;br&gt;&lt;b&gt;Controller&lt;/b&gt;&lt;/p&gt;&lt;hr size=&quot;1&quot;&gt;&lt;p style=&quot;margin: 0px ; margin-left: 4px&quot;&gt;+ initData&lt;span&gt;(User): void&lt;/span&gt;&lt;/p&gt;" style="verticalAlign=top;align=left;overflow=fill;fontSize=12;fontFamily=Helvetica;html=1;" parent="ZOYg5p0cv3gOobGNT6kV-19" vertex="1">
          <mxGeometry x="40" y="15" width="130" height="70" as="geometry" />
        </mxCell>
        <mxCell id="jC_Wdxe36F_O-iLtIrg6-29" value="&lt;p style=&quot;margin: 0px ; margin-top: 4px ; text-align: center&quot;&gt;&lt;b&gt;Loader&lt;/b&gt;&lt;/p&gt;&lt;hr size=&quot;1&quot;&gt;&lt;p style=&quot;margin: 0px ; margin-left: 4px&quot;&gt;- rootPane: AnchorPane&lt;/p&gt;&lt;p style=&quot;margin: 0px ; margin-left: 4px&quot;&gt;- currentUser: User&lt;/p&gt;&lt;hr size=&quot;1&quot;&gt;&lt;p style=&quot;margin: 0px ; margin-left: 4px&quot;&gt;+ Loader(User, AnchorPane)&lt;/p&gt;&lt;p style=&quot;margin: 0px ; margin-left: 4px&quot;&gt;+ load(String): void&lt;/p&gt;" style="verticalAlign=top;align=left;overflow=fill;fontSize=12;fontFamily=Helvetica;html=1;" parent="ZOYg5p0cv3gOobGNT6kV-19" vertex="1">
          <mxGeometry x="250" width="160" height="100" as="geometry" />
        </mxCell>
        <mxCell id="BZukZKPMYofZ3oWbsd-u-14" value="Use" style="endArrow=open;endSize=12;dashed=1;html=1;entryX=1;entryY=0.5;entryDx=0;entryDy=0;exitX=0;exitY=0.5;exitDx=0;exitDy=0;" parent="ZOYg5p0cv3gOobGNT6kV-19" source="jC_Wdxe36F_O-iLtIrg6-29" target="jC_Wdxe36F_O-iLtIrg6-4" edge="1">
          <mxGeometry width="160" relative="1" as="geometry">
            <mxPoint x="310" y="754.5799999999999" as="sourcePoint" />
            <mxPoint x="470" y="754.5799999999999" as="targetPoint" />
          </mxGeometry>
        </mxCell>
        <mxCell id="UXMgXP9CzdIKXv9W3ZQB-1" value="&lt;font color=&quot;#00ff00&quot;&gt;0..*&lt;/font&gt;" style="text;html=1;align=center;verticalAlign=middle;resizable=0;points=[];autosize=1;" parent="1" vertex="1">
          <mxGeometry x="1820" y="-870" width="30" height="20" as="geometry" />
        </mxCell>
        <mxCell id="UXMgXP9CzdIKXv9W3ZQB-3" value="&lt;font color=&quot;#0000cc&quot;&gt;0..*&lt;/font&gt;" style="text;html=1;align=center;verticalAlign=middle;resizable=0;points=[];autosize=1;" parent="1" vertex="1">
          <mxGeometry x="1825" y="-919" width="30" height="20" as="geometry" />
        </mxCell>
        <mxCell id="UXMgXP9CzdIKXv9W3ZQB-81" style="edgeStyle=elbowEdgeStyle;rounded=0;jumpStyle=arc;jumpSize=15;orthogonalLoop=1;jettySize=auto;elbow=vertical;html=1;exitX=1;exitY=0;exitDx=0;exitDy=0;endArrow=classic;endFill=1;endSize=6;" parent="1" source="UXMgXP9CzdIKXv9W3ZQB-62" edge="1">
          <mxGeometry relative="1" as="geometry">
            <mxPoint x="2024" y="-1080" as="targetPoint" />
            <Array as="points">
              <mxPoint x="1860" y="-1080" />
              <mxPoint x="1900" y="-1090" />
              <mxPoint x="1900" y="-1100" />
              <mxPoint x="1830" y="-1119" />
              <mxPoint x="1920" y="-1119" />
            </Array>
          </mxGeometry>
        </mxCell>
        <mxCell id="Fyv9kKef1HyjdScumFZm-7" style="edgeStyle=orthogonalEdgeStyle;rounded=0;jumpStyle=arc;jumpSize=15;orthogonalLoop=1;jettySize=auto;html=1;exitX=0.5;exitY=0;exitDx=0;exitDy=0;entryX=0.376;entryY=1.008;entryDx=0;entryDy=0;entryPerimeter=0;startArrow=none;startFill=0;endArrow=classic;endFill=1;" edge="1" parent="1" source="UXMgXP9CzdIKXv9W3ZQB-62" target="UXMgXP9CzdIKXv9W3ZQB-113">
          <mxGeometry relative="1" as="geometry" />
        </mxCell>
        <mxCell id="UXMgXP9CzdIKXv9W3ZQB-62" value="Order" style="swimlane;fontStyle=0;align=center;verticalAlign=top;childLayout=stackLayout;horizontal=1;startSize=26;horizontalStack=0;resizeParent=1;resizeLast=0;collapsible=1;marginBottom=0;rounded=0;shadow=0;strokeWidth=1;" parent="1" vertex="1">
          <mxGeometry x="1555" y="-1100" width="265" height="268" as="geometry">
            <mxRectangle x="165" y="-780" width="160" height="26" as="alternateBounds" />
          </mxGeometry>
        </mxCell>
        <mxCell id="UXMgXP9CzdIKXv9W3ZQB-63" value="-id: int" style="text;align=left;verticalAlign=top;spacingLeft=4;spacingRight=4;overflow=hidden;rotatable=0;points=[[0,0.5],[1,0.5]];portConstraint=eastwest;" parent="UXMgXP9CzdIKXv9W3ZQB-62" vertex="1">
          <mxGeometry y="26" width="265" height="26" as="geometry" />
        </mxCell>
        <mxCell id="UXMgXP9CzdIKXv9W3ZQB-64" value="-customer: String" style="text;align=left;verticalAlign=top;spacingLeft=4;spacingRight=4;overflow=hidden;rotatable=0;points=[[0,0.5],[1,0.5]];portConstraint=eastwest;rounded=0;shadow=0;html=0;" parent="UXMgXP9CzdIKXv9W3ZQB-62" vertex="1">
          <mxGeometry y="52" width="265" height="26" as="geometry" />
        </mxCell>
        <mxCell id="UXMgXP9CzdIKXv9W3ZQB-65" value="-shipped: Boolean" style="text;align=left;verticalAlign=top;spacingLeft=4;spacingRight=4;overflow=hidden;rotatable=0;points=[[0,0.5],[1,0.5]];portConstraint=eastwest;rounded=0;shadow=0;html=0;" parent="UXMgXP9CzdIKXv9W3ZQB-62" vertex="1">
          <mxGeometry y="78" width="265" height="26" as="geometry" />
        </mxCell>
        <mxCell id="UXMgXP9CzdIKXv9W3ZQB-66" value="-items: ArrayList&lt;Wine&gt;" style="text;align=left;verticalAlign=top;spacingLeft=4;spacingRight=4;overflow=hidden;rotatable=0;points=[[0,0.5],[1,0.5]];portConstraint=eastwest;rounded=0;shadow=0;html=0;" parent="UXMgXP9CzdIKXv9W3ZQB-62" vertex="1">
          <mxGeometry y="104" width="265" height="26" as="geometry" />
        </mxCell>
        <mxCell id="UXMgXP9CzdIKXv9W3ZQB-67" value="" style="line;strokeWidth=1;fillColor=none;align=left;verticalAlign=middle;spacingTop=-1;spacingLeft=3;spacingRight=3;rotatable=0;labelPosition=right;points=[];portConstraint=eastwest;" parent="UXMgXP9CzdIKXv9W3ZQB-62" vertex="1">
          <mxGeometry y="130" width="265" height="8" as="geometry" />
        </mxCell>
        <mxCell id="UXMgXP9CzdIKXv9W3ZQB-68" value="+ Order(int, Boolean, String, ArrayList&lt;Wine&gt;)" style="text;align=left;verticalAlign=top;spacingLeft=4;spacingRight=4;overflow=hidden;rotatable=0;points=[[0,0.5],[1,0.5]];portConstraint=eastwest;rounded=0;shadow=0;html=0;" parent="UXMgXP9CzdIKXv9W3ZQB-62" vertex="1">
          <mxGeometry y="138" width="265" height="26" as="geometry" />
        </mxCell>
        <mxCell id="UXMgXP9CzdIKXv9W3ZQB-69" value="+ getCustomer(): String" style="text;align=left;verticalAlign=top;spacingLeft=4;spacingRight=4;overflow=hidden;rotatable=0;points=[[0,0.5],[1,0.5]];portConstraint=eastwest;rounded=0;shadow=0;html=0;" parent="UXMgXP9CzdIKXv9W3ZQB-62" vertex="1">
          <mxGeometry y="164" width="265" height="26" as="geometry" />
        </mxCell>
        <mxCell id="UXMgXP9CzdIKXv9W3ZQB-70" value="+ getId(): int" style="text;align=left;verticalAlign=top;spacingLeft=4;spacingRight=4;overflow=hidden;rotatable=0;points=[[0,0.5],[1,0.5]];portConstraint=eastwest;rounded=0;shadow=0;html=0;" parent="UXMgXP9CzdIKXv9W3ZQB-62" vertex="1">
          <mxGeometry y="190" width="265" height="26" as="geometry" />
        </mxCell>
        <mxCell id="UXMgXP9CzdIKXv9W3ZQB-71" value="+ getStatus(): Boolean" style="text;align=left;verticalAlign=top;spacingLeft=4;spacingRight=4;overflow=hidden;rotatable=0;points=[[0,0.5],[1,0.5]];portConstraint=eastwest;rounded=0;shadow=0;html=0;" parent="UXMgXP9CzdIKXv9W3ZQB-62" vertex="1">
          <mxGeometry y="216" width="265" height="26" as="geometry" />
        </mxCell>
        <mxCell id="UXMgXP9CzdIKXv9W3ZQB-72" value="+ getWines(): ArrayList&lt;Wine&gt;" style="text;align=left;verticalAlign=top;spacingLeft=4;spacingRight=4;overflow=hidden;rotatable=0;points=[[0,0.5],[1,0.5]];portConstraint=eastwest;rounded=0;shadow=0;html=0;" parent="UXMgXP9CzdIKXv9W3ZQB-62" vertex="1">
          <mxGeometry y="242" width="265" height="26" as="geometry" />
        </mxCell>
        <mxCell id="UXMgXP9CzdIKXv9W3ZQB-83" value="Wine" style="swimlane;fontStyle=0;align=center;verticalAlign=top;childLayout=stackLayout;horizontal=1;startSize=26;horizontalStack=0;resizeParent=1;resizeLast=0;collapsible=1;marginBottom=0;rounded=0;shadow=0;strokeWidth=1;" parent="1" vertex="1">
          <mxGeometry x="2025" y="-1400" width="260" height="424" as="geometry">
            <mxRectangle x="550" y="140" width="160" height="26" as="alternateBounds" />
          </mxGeometry>
        </mxCell>
        <mxCell id="UXMgXP9CzdIKXv9W3ZQB-84" value="- name: String" style="text;align=left;verticalAlign=top;spacingLeft=4;spacingRight=4;overflow=hidden;rotatable=0;points=[[0,0.5],[1,0.5]];portConstraint=eastwest;" parent="UXMgXP9CzdIKXv9W3ZQB-83" vertex="1">
          <mxGeometry y="26" width="260" height="26" as="geometry" />
        </mxCell>
        <mxCell id="UXMgXP9CzdIKXv9W3ZQB-85" value="- productId: int" style="text;align=left;verticalAlign=top;spacingLeft=4;spacingRight=4;overflow=hidden;rotatable=0;points=[[0,0.5],[1,0.5]];portConstraint=eastwest;rounded=0;shadow=0;html=0;" parent="UXMgXP9CzdIKXv9W3ZQB-83" vertex="1">
          <mxGeometry y="52" width="260" height="26" as="geometry" />
        </mxCell>
        <mxCell id="UXMgXP9CzdIKXv9W3ZQB-86" value="- producer: String" style="text;align=left;verticalAlign=top;spacingLeft=4;spacingRight=4;overflow=hidden;rotatable=0;points=[[0,0.5],[1,0.5]];portConstraint=eastwest;rounded=0;shadow=0;html=0;" parent="UXMgXP9CzdIKXv9W3ZQB-83" vertex="1">
          <mxGeometry y="78" width="260" height="26" as="geometry" />
        </mxCell>
        <mxCell id="UXMgXP9CzdIKXv9W3ZQB-87" value="- year: int" style="text;align=left;verticalAlign=top;spacingLeft=4;spacingRight=4;overflow=hidden;rotatable=0;points=[[0,0.5],[1,0.5]];portConstraint=eastwest;rounded=0;shadow=0;html=0;" parent="UXMgXP9CzdIKXv9W3ZQB-83" vertex="1">
          <mxGeometry y="104" width="260" height="26" as="geometry" />
        </mxCell>
        <mxCell id="UXMgXP9CzdIKXv9W3ZQB-88" value="- notes: String" style="text;align=left;verticalAlign=top;spacingLeft=4;spacingRight=4;overflow=hidden;rotatable=0;points=[[0,0.5],[1,0.5]];portConstraint=eastwest;rounded=0;shadow=0;html=0;" parent="UXMgXP9CzdIKXv9W3ZQB-83" vertex="1">
          <mxGeometry y="130" width="260" height="26" as="geometry" />
        </mxCell>
        <mxCell id="UXMgXP9CzdIKXv9W3ZQB-89" value="- quantity: int" style="text;align=left;verticalAlign=top;spacingLeft=4;spacingRight=4;overflow=hidden;rotatable=0;points=[[0,0.5],[1,0.5]];portConstraint=eastwest;rounded=0;shadow=0;html=0;" parent="UXMgXP9CzdIKXv9W3ZQB-83" vertex="1">
          <mxGeometry y="156" width="260" height="26" as="geometry" />
        </mxCell>
        <mxCell id="UXMgXP9CzdIKXv9W3ZQB-90" value="- grapes: String" style="text;align=left;verticalAlign=top;spacingLeft=4;spacingRight=4;overflow=hidden;rotatable=0;points=[[0,0.5],[1,0.5]];portConstraint=eastwest;rounded=0;shadow=0;html=0;" parent="UXMgXP9CzdIKXv9W3ZQB-83" vertex="1">
          <mxGeometry y="182" width="260" height="26" as="geometry" />
        </mxCell>
        <mxCell id="UXMgXP9CzdIKXv9W3ZQB-91" value="" style="line;strokeWidth=1;fillColor=none;align=left;verticalAlign=middle;spacingTop=-1;spacingLeft=3;spacingRight=3;rotatable=0;labelPosition=right;points=[];portConstraint=eastwest;" parent="UXMgXP9CzdIKXv9W3ZQB-83" vertex="1">
          <mxGeometry y="208" width="260" height="8" as="geometry" />
        </mxCell>
        <mxCell id="UXMgXP9CzdIKXv9W3ZQB-92" value="+ Wine(int, String, String, int, String, int, String)" style="text;align=left;verticalAlign=top;spacingLeft=4;spacingRight=4;overflow=hidden;rotatable=0;points=[[0,0.5],[1,0.5]];portConstraint=eastwest;rounded=0;shadow=0;html=0;" parent="UXMgXP9CzdIKXv9W3ZQB-83" vertex="1">
          <mxGeometry y="216" width="260" height="26" as="geometry" />
        </mxCell>
        <mxCell id="UXMgXP9CzdIKXv9W3ZQB-93" value="+getName(): String" style="text;align=left;verticalAlign=top;spacingLeft=4;spacingRight=4;overflow=hidden;rotatable=0;points=[[0,0.5],[1,0.5]];portConstraint=eastwest;rounded=0;shadow=0;html=0;" parent="UXMgXP9CzdIKXv9W3ZQB-83" vertex="1">
          <mxGeometry y="242" width="260" height="26" as="geometry" />
        </mxCell>
        <mxCell id="UXMgXP9CzdIKXv9W3ZQB-94" value="+getProducer(): String" style="text;align=left;verticalAlign=top;spacingLeft=4;spacingRight=4;overflow=hidden;rotatable=0;points=[[0,0.5],[1,0.5]];portConstraint=eastwest;rounded=0;shadow=0;html=0;" parent="UXMgXP9CzdIKXv9W3ZQB-83" vertex="1">
          <mxGeometry y="268" width="260" height="26" as="geometry" />
        </mxCell>
        <mxCell id="UXMgXP9CzdIKXv9W3ZQB-95" value="+getYear(): int" style="text;align=left;verticalAlign=top;spacingLeft=4;spacingRight=4;overflow=hidden;rotatable=0;points=[[0,0.5],[1,0.5]];portConstraint=eastwest;rounded=0;shadow=0;html=0;" parent="UXMgXP9CzdIKXv9W3ZQB-83" vertex="1">
          <mxGeometry y="294" width="260" height="26" as="geometry" />
        </mxCell>
        <mxCell id="UXMgXP9CzdIKXv9W3ZQB-96" value="+getQuantity(): int" style="text;align=left;verticalAlign=top;spacingLeft=4;spacingRight=4;overflow=hidden;rotatable=0;points=[[0,0.5],[1,0.5]];portConstraint=eastwest;rounded=0;shadow=0;html=0;" parent="UXMgXP9CzdIKXv9W3ZQB-83" vertex="1">
          <mxGeometry y="320" width="260" height="26" as="geometry" />
        </mxCell>
        <mxCell id="UXMgXP9CzdIKXv9W3ZQB-97" value="+getNotes(): String" style="text;align=left;verticalAlign=top;spacingLeft=4;spacingRight=4;overflow=hidden;rotatable=0;points=[[0,0.5],[1,0.5]];portConstraint=eastwest;rounded=0;shadow=0;html=0;" parent="UXMgXP9CzdIKXv9W3ZQB-83" vertex="1">
          <mxGeometry y="346" width="260" height="26" as="geometry" />
        </mxCell>
        <mxCell id="UXMgXP9CzdIKXv9W3ZQB-98" value="+getGrapewines(): String" style="text;align=left;verticalAlign=top;spacingLeft=4;spacingRight=4;overflow=hidden;rotatable=0;points=[[0,0.5],[1,0.5]];portConstraint=eastwest;rounded=0;shadow=0;html=0;" parent="UXMgXP9CzdIKXv9W3ZQB-83" vertex="1">
          <mxGeometry y="372" width="260" height="26" as="geometry" />
        </mxCell>
        <mxCell id="UXMgXP9CzdIKXv9W3ZQB-99" value="+getProductId(): int" style="text;align=left;verticalAlign=top;spacingLeft=4;spacingRight=4;overflow=hidden;rotatable=0;points=[[0,0.5],[1,0.5]];portConstraint=eastwest;rounded=0;shadow=0;html=0;" parent="UXMgXP9CzdIKXv9W3ZQB-83" vertex="1">
          <mxGeometry y="398" width="260" height="26" as="geometry" />
        </mxCell>
        <mxCell id="UXMgXP9CzdIKXv9W3ZQB-101" value="User" style="swimlane;fontStyle=0;align=center;verticalAlign=top;childLayout=stackLayout;horizontal=1;startSize=26;horizontalStack=0;resizeParent=1;resizeLast=0;collapsible=1;marginBottom=0;rounded=0;shadow=0;strokeWidth=1;" parent="1" vertex="1">
          <mxGeometry x="1605" y="-1462" width="220" height="312" as="geometry">
            <mxRectangle x="550" y="140" width="160" height="26" as="alternateBounds" />
          </mxGeometry>
        </mxCell>
        <mxCell id="UXMgXP9CzdIKXv9W3ZQB-102" value="- name: String" style="text;align=left;verticalAlign=top;spacingLeft=4;spacingRight=4;overflow=hidden;rotatable=0;points=[[0,0.5],[1,0.5]];portConstraint=eastwest;" parent="UXMgXP9CzdIKXv9W3ZQB-101" vertex="1">
          <mxGeometry y="26" width="220" height="26" as="geometry" />
        </mxCell>
        <mxCell id="UXMgXP9CzdIKXv9W3ZQB-103" value="- surname: String" style="text;align=left;verticalAlign=top;spacingLeft=4;spacingRight=4;overflow=hidden;rotatable=0;points=[[0,0.5],[1,0.5]];portConstraint=eastwest;rounded=0;shadow=0;html=0;" parent="UXMgXP9CzdIKXv9W3ZQB-101" vertex="1">
          <mxGeometry y="52" width="220" height="26" as="geometry" />
        </mxCell>
        <mxCell id="UXMgXP9CzdIKXv9W3ZQB-104" value="- email: String" style="text;align=left;verticalAlign=top;spacingLeft=4;spacingRight=4;overflow=hidden;rotatable=0;points=[[0,0.5],[1,0.5]];portConstraint=eastwest;rounded=0;shadow=0;html=0;" parent="UXMgXP9CzdIKXv9W3ZQB-101" vertex="1">
          <mxGeometry y="78" width="220" height="26" as="geometry" />
        </mxCell>
        <mxCell id="UXMgXP9CzdIKXv9W3ZQB-105" value="- password: String" style="text;align=left;verticalAlign=top;spacingLeft=4;spacingRight=4;overflow=hidden;rotatable=0;points=[[0,0.5],[1,0.5]];portConstraint=eastwest;rounded=0;shadow=0;html=0;" parent="UXMgXP9CzdIKXv9W3ZQB-101" vertex="1">
          <mxGeometry y="104" width="220" height="26" as="geometry" />
        </mxCell>
        <mxCell id="UXMgXP9CzdIKXv9W3ZQB-106" value="" style="endArrow=none;html=1;entryX=0.994;entryY=0;entryDx=0;entryDy=0;entryPerimeter=0;" parent="UXMgXP9CzdIKXv9W3ZQB-101" target="UXMgXP9CzdIKXv9W3ZQB-108" edge="1">
          <mxGeometry width="50" height="50" relative="1" as="geometry">
            <mxPoint y="156" as="sourcePoint" />
            <mxPoint x="50" y="106" as="targetPoint" />
          </mxGeometry>
        </mxCell>
        <mxCell id="UXMgXP9CzdIKXv9W3ZQB-107" value="- permission: int" style="text;align=left;verticalAlign=top;spacingLeft=4;spacingRight=4;overflow=hidden;rotatable=0;points=[[0,0.5],[1,0.5]];portConstraint=eastwest;rounded=0;shadow=0;html=0;" parent="UXMgXP9CzdIKXv9W3ZQB-101" vertex="1">
          <mxGeometry y="130" width="220" height="26" as="geometry" />
        </mxCell>
        <mxCell id="UXMgXP9CzdIKXv9W3ZQB-108" value="+ User(String, String, String, String, int)" style="text;align=left;verticalAlign=top;spacingLeft=4;spacingRight=4;overflow=hidden;rotatable=0;points=[[0,0.5],[1,0.5]];portConstraint=eastwest;rounded=0;shadow=0;html=0;" parent="UXMgXP9CzdIKXv9W3ZQB-101" vertex="1">
          <mxGeometry y="156" width="220" height="26" as="geometry" />
        </mxCell>
        <mxCell id="UXMgXP9CzdIKXv9W3ZQB-109" value="+ getName(): String" style="text;align=left;verticalAlign=top;spacingLeft=4;spacingRight=4;overflow=hidden;rotatable=0;points=[[0,0.5],[1,0.5]];portConstraint=eastwest;rounded=0;shadow=0;html=0;" parent="UXMgXP9CzdIKXv9W3ZQB-101" vertex="1">
          <mxGeometry y="182" width="220" height="26" as="geometry" />
        </mxCell>
        <mxCell id="UXMgXP9CzdIKXv9W3ZQB-110" value="+ getSurname(): String" style="text;align=left;verticalAlign=top;spacingLeft=4;spacingRight=4;overflow=hidden;rotatable=0;points=[[0,0.5],[1,0.5]];portConstraint=eastwest;rounded=0;shadow=0;html=0;" parent="UXMgXP9CzdIKXv9W3ZQB-101" vertex="1">
          <mxGeometry y="208" width="220" height="26" as="geometry" />
        </mxCell>
        <mxCell id="UXMgXP9CzdIKXv9W3ZQB-111" value="+ getEmail(): String" style="text;align=left;verticalAlign=top;spacingLeft=4;spacingRight=4;overflow=hidden;rotatable=0;points=[[0,0.5],[1,0.5]];portConstraint=eastwest;rounded=0;shadow=0;html=0;" parent="UXMgXP9CzdIKXv9W3ZQB-101" vertex="1">
          <mxGeometry y="234" width="220" height="26" as="geometry" />
        </mxCell>
        <mxCell id="UXMgXP9CzdIKXv9W3ZQB-112" value="+ getPermission(): int" style="text;align=left;verticalAlign=top;spacingLeft=4;spacingRight=4;overflow=hidden;rotatable=0;points=[[0,0.5],[1,0.5]];portConstraint=eastwest;rounded=0;shadow=0;html=0;" parent="UXMgXP9CzdIKXv9W3ZQB-101" vertex="1">
          <mxGeometry y="260" width="220" height="26" as="geometry" />
        </mxCell>
        <mxCell id="UXMgXP9CzdIKXv9W3ZQB-113" value="+ getPassword(): String" style="text;align=left;verticalAlign=top;spacingLeft=4;spacingRight=4;overflow=hidden;rotatable=0;points=[[0,0.5],[1,0.5]];portConstraint=eastwest;rounded=0;shadow=0;html=0;" parent="UXMgXP9CzdIKXv9W3ZQB-101" vertex="1">
          <mxGeometry y="286" width="220" height="26" as="geometry" />
        </mxCell>
        <mxCell id="UXMgXP9CzdIKXv9W3ZQB-115" style="edgeStyle=elbowEdgeStyle;rounded=0;jumpStyle=arc;jumpSize=15;orthogonalLoop=1;jettySize=auto;elbow=vertical;html=1;exitX=0.5;exitY=1;exitDx=0;exitDy=0;entryX=0.75;entryY=0;entryDx=0;entryDy=0;startArrow=none;startFill=0;endArrow=classic;endFill=1;endSize=6;strokeColor=#9933FF;" parent="1" source="wKeTZpyMlNqquont4m5I-249" target="UXMgXP9CzdIKXv9W3ZQB-62" edge="1">
          <mxGeometry relative="1" as="geometry">
            <Array as="points">
              <mxPoint x="1970" y="-1120" />
              <mxPoint x="1830" y="-1120" />
              <mxPoint x="1880" y="-1160" />
              <mxPoint x="1830" y="-1130" />
              <mxPoint x="1890" y="-1170" />
              <mxPoint x="1800" y="-1140" />
              <mxPoint x="1850" y="-1140" />
              <mxPoint x="1850" y="-1009" />
            </Array>
          </mxGeometry>
        </mxCell>
        <mxCell id="UXMgXP9CzdIKXv9W3ZQB-116" value="&lt;font color=&quot;#00ff00&quot;&gt;0..*&lt;/font&gt;" style="text;html=1;align=center;verticalAlign=middle;resizable=0;points=[];autosize=1;" parent="1" vertex="1">
          <mxGeometry x="1995" y="-1010" width="30" height="20" as="geometry" />
        </mxCell>
        <mxCell id="UXMgXP9CzdIKXv9W3ZQB-119" value="0..*" style="text;html=1;strokeColor=none;fillColor=none;align=center;verticalAlign=middle;whiteSpace=wrap;rounded=0;" parent="1" vertex="1">
          <mxGeometry x="1830" y="-1340" width="20" height="20" as="geometry" />
        </mxCell>
        <mxCell id="UXMgXP9CzdIKXv9W3ZQB-120" style="edgeStyle=elbowEdgeStyle;rounded=0;jumpStyle=arc;jumpSize=15;orthogonalLoop=1;jettySize=auto;elbow=vertical;html=1;exitX=1;exitY=0.5;exitDx=0;exitDy=0;startArrow=none;startFill=0;endArrow=classic;endFill=1;endSize=6;strokeColor=#FFB570;entryX=0;entryY=0.5;entryDx=0;entryDy=0;" parent="1" source="jC_Wdxe36F_O-iLtIrg6-21" target="UXMgXP9CzdIKXv9W3ZQB-110" edge="1">
          <mxGeometry relative="1" as="geometry">
            <mxPoint x="1580" y="-1241" as="targetPoint" />
            <Array as="points">
              <mxPoint x="1500" y="-1241" />
            </Array>
          </mxGeometry>
        </mxCell>
        <mxCell id="UXMgXP9CzdIKXv9W3ZQB-121" value="&lt;font color=&quot;#9933ff&quot;&gt;0..*&lt;/font&gt;" style="text;html=1;align=center;verticalAlign=middle;resizable=0;points=[];autosize=1;" parent="1" vertex="1">
          <mxGeometry x="1755" y="-1120" width="30" height="20" as="geometry" />
        </mxCell>
        <mxCell id="UXMgXP9CzdIKXv9W3ZQB-122" value="&lt;font color=&quot;#9933ff&quot;&gt;0..*&lt;/font&gt;" style="text;html=1;align=center;verticalAlign=middle;resizable=0;points=[];autosize=1;" parent="1" vertex="1">
          <mxGeometry x="2220" y="-1420" width="30" height="20" as="geometry" />
        </mxCell>
        <mxCell id="UXMgXP9CzdIKXv9W3ZQB-123" value="&lt;font color=&quot;#4a74ff&quot;&gt;0..*&lt;/font&gt;" style="text;html=1;align=center;verticalAlign=middle;resizable=0;points=[];autosize=1;" parent="1" vertex="1">
          <mxGeometry x="1770" y="-1482" width="30" height="20" as="geometry" />
        </mxCell>
        <mxCell id="UXMgXP9CzdIKXv9W3ZQB-124" value="&lt;font color=&quot;#9933ff&quot;&gt;1..1&lt;/font&gt;" style="text;html=1;align=center;verticalAlign=middle;resizable=0;points=[];autosize=1;" parent="1" vertex="1">
          <mxGeometry x="1710" y="-1482" width="40" height="20" as="geometry" />
        </mxCell>
        <mxCell id="UXMgXP9CzdIKXv9W3ZQB-125" value="&lt;font color=&quot;#7ea6e0&quot;&gt;1..1&lt;/font&gt;" style="text;html=1;align=center;verticalAlign=middle;resizable=0;points=[];autosize=1;" parent="1" vertex="1">
          <mxGeometry x="1655" y="-1482" width="40" height="20" as="geometry" />
        </mxCell>
        <mxCell id="UXMgXP9CzdIKXv9W3ZQB-126" value="&lt;font color=&quot;#ea6b66&quot;&gt;1..1&lt;/font&gt;" style="text;html=1;align=center;verticalAlign=middle;resizable=0;points=[];autosize=1;" parent="1" vertex="1">
          <mxGeometry x="1600" y="-1482" width="40" height="20" as="geometry" />
        </mxCell>
        <mxCell id="UXMgXP9CzdIKXv9W3ZQB-128" value="&lt;font color=&quot;#0000cc&quot;&gt;0..*&lt;/font&gt;" style="text;html=1;align=center;verticalAlign=middle;resizable=0;points=[];autosize=1;" parent="1" vertex="1">
          <mxGeometry x="2150" y="-964" width="30" height="20" as="geometry" />
        </mxCell>
        <mxCell id="UXMgXP9CzdIKXv9W3ZQB-129" value="&lt;font color=&quot;#ea6b66&quot;&gt;0..*&lt;/font&gt;" style="text;html=1;align=center;verticalAlign=middle;resizable=0;points=[];autosize=1;" parent="1" vertex="1">
          <mxGeometry x="2160" y="-1420" width="30" height="20" as="geometry" />
        </mxCell>
        <mxCell id="UXMgXP9CzdIKXv9W3ZQB-130" value="&lt;font color=&quot;#579191&quot;&gt;0..*&lt;/font&gt;" style="text;html=1;align=center;verticalAlign=middle;resizable=0;points=[];autosize=1;" parent="1" vertex="1">
          <mxGeometry x="2090" y="-1420" width="30" height="20" as="geometry" />
        </mxCell>
        <mxCell id="UXMgXP9CzdIKXv9W3ZQB-131" style="edgeStyle=elbowEdgeStyle;rounded=0;jumpStyle=arc;jumpSize=15;orthogonalLoop=1;jettySize=auto;elbow=vertical;html=1;exitX=0;exitY=0.5;exitDx=0;exitDy=0;startArrow=none;startFill=0;endArrow=classic;endFill=1;endSize=6;" parent="1" source="UXMgXP9CzdIKXv9W3ZQB-95" target="UXMgXP9CzdIKXv9W3ZQB-64" edge="1">
          <mxGeometry relative="1" as="geometry">
            <mxPoint x="1820" y="-1070" as="targetPoint" />
            <Array as="points">
              <mxPoint x="1900" y="-1040" />
              <mxPoint x="1910" y="-1070" />
              <mxPoint x="1920" y="-1100" />
            </Array>
          </mxGeometry>
        </mxCell>
        <mxCell id="UXMgXP9CzdIKXv9W3ZQB-132" value="" style="group;" parent="1" vertex="1" connectable="0">
          <mxGeometry x="1370" y="-810" width="230" height="272" as="geometry" />
        </mxCell>
        <mxCell id="wKeTZpyMlNqquont4m5I-164" value="" style="group" parent="UXMgXP9CzdIKXv9W3ZQB-132" vertex="1" connectable="0">
          <mxGeometry y="30" width="230" height="242" as="geometry" />
        </mxCell>
        <mxCell id="jC_Wdxe36F_O-iLtIrg6-10" value="&lt;p style=&quot;margin: 0px ; margin-top: 4px ; text-align: center&quot;&gt;&lt;b&gt;ControllerAddEmployee&lt;/b&gt;&lt;/p&gt;&lt;hr size=&quot;1&quot;&gt;&lt;p style=&quot;margin: 0px ; margin-left: 4px&quot;&gt;- rootPane: AnchorPane&lt;/p&gt;&lt;p style=&quot;margin: 0px ; margin-left: 4px&quot;&gt;- name: TextField&lt;/p&gt;&lt;p style=&quot;margin: 0px ; margin-left: 4px&quot;&gt;- surname: TextField&lt;br&gt;&lt;/p&gt;&lt;p style=&quot;margin: 0px ; margin-left: 4px&quot;&gt;- email: TextField&lt;br&gt;&lt;/p&gt;&lt;p style=&quot;margin: 0px ; margin-left: 4px&quot;&gt;- password: PasswordField&lt;br&gt;&lt;/p&gt;&lt;p style=&quot;margin: 0px ; margin-left: 4px&quot;&gt;- currentUser: User&lt;/p&gt;&lt;hr size=&quot;1&quot;&gt;&lt;p style=&quot;margin: 0px ; margin-left: 4px&quot;&gt;+ initData(User): void&lt;/p&gt;&lt;p style=&quot;margin: 0px ; margin-left: 4px&quot;&gt;+ isMail(String): Boolean&lt;/p&gt;&lt;p style=&quot;margin: 0px ; margin-left: 4px&quot;&gt;+ addEmployee(ActionEvent): void&lt;/p&gt;&lt;p style=&quot;margin: 0px ; margin-left: 4px&quot;&gt;+ back(ActionEvent): void&lt;/p&gt;&lt;p style=&quot;margin: 0px ; margin-left: 4px&quot;&gt;&lt;br&gt;&lt;/p&gt;&lt;p style=&quot;margin: 0px ; margin-left: 4px&quot;&gt;&lt;br&gt;&lt;/p&gt;" style="verticalAlign=top;align=left;overflow=fill;fontSize=12;fontFamily=Helvetica;html=1;strokeColor=#B5739D;" parent="wKeTZpyMlNqquont4m5I-164" vertex="1">
          <mxGeometry x="20" y="50" width="190" height="192" as="geometry" />
        </mxCell>
        <mxCell id="wKeTZpyMlNqquont4m5I-242" value="" style="group" parent="wKeTZpyMlNqquont4m5I-164" vertex="1" connectable="0">
          <mxGeometry x="100" y="-1.7763568394002505e-15" width="30" height="30" as="geometry" />
        </mxCell>
        <mxCell id="wKeTZpyMlNqquont4m5I-142" value="" style="endArrow=none;html=1;entryX=0.5;entryY=0;entryDx=0;entryDy=0;" parent="wKeTZpyMlNqquont4m5I-242" target="jC_Wdxe36F_O-iLtIrg6-10" edge="1">
          <mxGeometry x="2" y="-67" width="50" height="50" as="geometry">
            <mxPoint x="15" y="23" as="sourcePoint" />
            <mxPoint x="13" y="48" as="targetPoint" />
          </mxGeometry>
        </mxCell>
        <mxCell id="wKeTZpyMlNqquont4m5I-146" value="" style="ellipse;fillColor=#ffffff;strokeColor=#000000;rotation=90;" parent="wKeTZpyMlNqquont4m5I-242" vertex="1">
          <mxGeometry y="1.7763568394002505e-15" width="30" height="30" as="geometry" />
        </mxCell>
        <mxCell id="wKeTZpyMlNqquont4m5I-193" value="Controller" style="text;html=1;align=center;verticalAlign=middle;resizable=0;points=[];autosize=1;" parent="UXMgXP9CzdIKXv9W3ZQB-132" vertex="1">
          <mxGeometry x="80" width="70" height="20" as="geometry" />
        </mxCell>
        <mxCell id="wKeTZpyMlNqquont4m5I-262" value="Controller" style="text;html=1;align=center;verticalAlign=middle;resizable=0;points=[];autosize=1;" parent="1" vertex="1">
          <mxGeometry x="1200" y="-1090" width="70" height="20" as="geometry" />
        </mxCell>
        <mxCell id="jC_Wdxe36F_O-iLtIrg6-15" value="&lt;p style=&quot;margin: 0px ; margin-top: 4px ; text-align: center&quot;&gt;&lt;b&gt;ControllerHomepageEmployee&lt;/b&gt;&lt;/p&gt;&lt;hr size=&quot;1&quot;&gt;&lt;p style=&quot;margin: 0px ; margin-left: 4px&quot;&gt;- rootPane: AnchorPane&lt;/p&gt;&lt;p style=&quot;margin: 0px ; margin-left: 4px&quot;&gt;- treeView: TreeView&amp;lt;String&amp;gt;&lt;/p&gt;&lt;p style=&quot;margin: 0px ; margin-left: 4px&quot;&gt;- name: Text&lt;/p&gt;&lt;p style=&quot;margin: 0px ; margin-left: 4px&quot;&gt;- currentUser: User&lt;/p&gt;&lt;hr size=&quot;1&quot;&gt;&lt;p style=&quot;margin: 0px ; margin-left: 4px&quot;&gt;+ initData(User): void&lt;/p&gt;&lt;p style=&quot;margin: 0px ; margin-left: 4px&quot;&gt;+ loadAddWine(ActionEvent): void&lt;/p&gt;&lt;p style=&quot;margin: 0px ; margin-left: 4px&quot;&gt;+ loadShop(ActionEvent): void&lt;/p&gt;&lt;p style=&quot;margin: 0px ; margin-left: 4px&quot;&gt;+ loadRestockWine(ActionEvent): void&lt;/p&gt;&lt;p style=&quot;margin: 0px ; margin-left: 4px&quot;&gt;+ shipOrder(ActionEvent): void&lt;/p&gt;&lt;p style=&quot;margin: 0px ; margin-left: 4px&quot;&gt;+ logout(ActionEvent): void&lt;/p&gt;&lt;p style=&quot;margin: 0px ; margin-left: 4px&quot;&gt;+ displayOrders(): void&lt;/p&gt;&lt;p style=&quot;margin: 0px ; margin-left: 4px&quot;&gt;&lt;br&gt;&lt;/p&gt;" style="verticalAlign=top;align=left;overflow=fill;fontSize=12;fontFamily=Helvetica;html=1;strokeColor=#579191;" parent="1" vertex="1">
          <mxGeometry x="1130" y="-1010" width="210" height="202" as="geometry" />
        </mxCell>
        <mxCell id="wKeTZpyMlNqquont4m5I-181" value="" style="endArrow=none;html=1;entryX=0.5;entryY=0;entryDx=0;entryDy=0;" parent="1" edge="1">
          <mxGeometry x="1202" y="-1160" width="50" height="50" as="geometry">
            <mxPoint x="1235" y="-1030" as="sourcePoint" />
            <mxPoint x="1235" y="-1010" as="targetPoint" />
          </mxGeometry>
        </mxCell>
        <mxCell id="wKeTZpyMlNqquont4m5I-182" value="" style="ellipse;fillColor=#ffffff;strokeColor=#000000;rotation=90;" parent="1" vertex="1">
          <mxGeometry x="1220" y="-1060" width="30" height="30" as="geometry" />
        </mxCell>
        <mxCell id="wKeTZpyMlNqquont4m5I-263" value="Controller" style="text;html=1;align=center;verticalAlign=middle;resizable=0;points=[];autosize=1;" parent="1" vertex="1">
          <mxGeometry x="1200" y="-1398" width="70" height="20" as="geometry" />
        </mxCell>
        <mxCell id="jC_Wdxe36F_O-iLtIrg6-21" value="&lt;p style=&quot;margin: 0px ; margin-top: 4px ; text-align: center&quot;&gt;&lt;b&gt;ControllerRestock&lt;/b&gt;&lt;/p&gt;&lt;hr size=&quot;1&quot;&gt;&lt;p style=&quot;margin: 0px ; margin-left: 4px&quot;&gt;- rootPane: AnchorPane&lt;/p&gt;&lt;p style=&quot;margin: 0px ; margin-left: 4px&quot;&gt;- id: TextField&lt;/p&gt;&lt;p style=&quot;margin: 0px ; margin-left: 4px&quot;&gt;- quantity: TextField&lt;/p&gt;&lt;p style=&quot;margin: 0px ; margin-left: 4px&quot;&gt;- currentUser: User&lt;/p&gt;&lt;hr size=&quot;1&quot;&gt;&lt;p style=&quot;margin: 0px ; margin-left: 4px&quot;&gt;+ initData(User): void&lt;/p&gt;&lt;p style=&quot;margin: 0px ; margin-left: 4px&quot;&gt;+ back(ActionEvent): void&lt;/p&gt;&lt;p style=&quot;margin: 0px ; margin-left: 4px&quot;&gt;+ restockWine(ActionEvent): void&lt;/p&gt;" style="verticalAlign=top;align=left;overflow=fill;fontSize=12;fontFamily=Helvetica;html=1;strokeColor=#FFB570;" parent="1" vertex="1">
          <mxGeometry x="1142.5" y="-1320" width="185" height="152" as="geometry" />
        </mxCell>
        <mxCell id="wKeTZpyMlNqquont4m5I-155" value="" style="endArrow=none;html=1;entryX=0.5;entryY=0;entryDx=0;entryDy=0;" parent="1" target="jC_Wdxe36F_O-iLtIrg6-21" edge="1">
          <mxGeometry x="1202" y="-1478" width="50" height="50" as="geometry">
            <mxPoint x="1235" y="-1338" as="sourcePoint" />
            <mxPoint x="1235" y="-1328" as="targetPoint" />
          </mxGeometry>
        </mxCell>
        <mxCell id="wKeTZpyMlNqquont4m5I-156" value="" style="ellipse;fillColor=#ffffff;strokeColor=#000000;rotation=90;" parent="1" vertex="1">
          <mxGeometry x="1220" y="-1368" width="30" height="30" as="geometry" />
        </mxCell>
        <mxCell id="wKeTZpyMlNqquont4m5I-258" value="" style="group" parent="1" vertex="1" connectable="0">
          <mxGeometry x="1755" y="-2030" width="280" height="412" as="geometry" />
        </mxCell>
        <mxCell id="wKeTZpyMlNqquont4m5I-249" value="&lt;p style=&quot;margin: 0px ; margin-top: 4px ; text-align: center&quot;&gt;&lt;b&gt;ControllerHomepageUser&lt;/b&gt;&lt;/p&gt;&lt;hr size=&quot;1&quot;&gt;&lt;p style=&quot;margin: 0px ; margin-left: 4px&quot;&gt;- rootPane: AnchorPane&lt;/p&gt;&lt;p style=&quot;margin: 0px ; margin-left: 4px&quot;&gt;- searchboxName: TextField&lt;/p&gt;&lt;p style=&quot;margin: 0px ; margin-left: 4px&quot;&gt;- searchboxName: TextField&lt;/p&gt;&lt;p style=&quot;margin: 0px ; margin-left: 4px&quot;&gt;- treeView: TreeView&amp;lt;String&amp;gt;&lt;/p&gt;&lt;p style=&quot;margin: 0px ; margin-left: 4px&quot;&gt;- tableView: TableView&amp;lt;Wine&amp;gt;&lt;/p&gt;&lt;p style=&quot;margin: 0px ; margin-left: 4px&quot;&gt;- nameColumn: TableColumn&amp;lt;Wine, String&amp;gt;&lt;/p&gt;&lt;p style=&quot;margin: 0px ; margin-left: 4px&quot;&gt;- yearColumn: TableColumn&amp;lt;Wine, Integer&amp;gt;&lt;/p&gt;&lt;p style=&quot;margin: 0px ; margin-left: 4px&quot;&gt;- producerColumn: TableColumn&amp;lt;Wine, String&amp;gt;&lt;/p&gt;&lt;p style=&quot;margin: 0px ; margin-left: 4px&quot;&gt;- grapesColumn: TableColumn&amp;lt;Wine, String&amp;gt;&lt;/p&gt;&lt;p style=&quot;margin: 0px ; margin-left: 4px&quot;&gt;- notesColumn: TableColumn&amp;lt;Wine, String&amp;gt;&lt;/p&gt;&lt;p style=&quot;margin: 0px ; margin-left: 4px&quot;&gt;- quantity: TextField&lt;/p&gt;&lt;p style=&quot;margin: 0px ; margin-left: 4px&quot;&gt;- currentUser: User&lt;/p&gt;&lt;hr size=&quot;1&quot;&gt;&lt;p style=&quot;margin: 0px ; margin-left: 4px&quot;&gt;+ initData(User): void&lt;/p&gt;&lt;p style=&quot;margin: 0px ; margin-left: 4px&quot;&gt;+ addtoTable(ArrayList&amp;lt;Wine&amp;gt;): void&lt;/p&gt;&lt;p style=&quot;margin: 0px ; margin-left: 4px&quot;&gt;+ displayNotifications(ArrayList&amp;lt;Wine&amp;gt;): void&lt;/p&gt;&lt;p style=&quot;margin: 0px ; margin-left: 4px&quot;&gt;+ addToCart(ActionEvent): void&lt;/p&gt;&lt;p style=&quot;margin: 0px ; margin-left: 4px&quot;&gt;+ search(ActionEvent): void&lt;/p&gt;&lt;p style=&quot;margin: 0px ; margin-left: 4px&quot;&gt;+ showCart(ActionEvent): void&lt;/p&gt;&lt;p style=&quot;margin: 0px ; margin-left: 4px&quot;&gt;+ displayOrders(): void&lt;/p&gt;&lt;p style=&quot;margin: 0px ; margin-left: 4px&quot;&gt;+ logout(ActionEvent): void&lt;/p&gt;" style="verticalAlign=top;align=left;overflow=fill;fontSize=12;fontFamily=Helvetica;html=1;strokeColor=#9933FF;" parent="wKeTZpyMlNqquont4m5I-258" vertex="1">
          <mxGeometry y="80" width="260" height="332" as="geometry" />
        </mxCell>
        <mxCell id="wKeTZpyMlNqquont4m5I-250" value="" style="endArrow=none;html=1;entryX=0.5;entryY=0;entryDx=0;entryDy=0;" parent="wKeTZpyMlNqquont4m5I-258" edge="1">
          <mxGeometry x="117" y="-57" width="50" height="50" as="geometry">
            <mxPoint x="140" y="50" as="sourcePoint" />
            <mxPoint x="140" y="80" as="targetPoint" />
          </mxGeometry>
        </mxCell>
        <mxCell id="wKeTZpyMlNqquont4m5I-251" value="" style="ellipse;fillColor=#ffffff;strokeColor=#000000;rotation=90;" parent="wKeTZpyMlNqquont4m5I-258" vertex="1">
          <mxGeometry x="125" y="30" width="30" height="30" as="geometry" />
        </mxCell>
        <mxCell id="wKeTZpyMlNqquont4m5I-256" value="Controller" style="text;html=1;align=center;verticalAlign=middle;resizable=0;points=[];autosize=1;" parent="wKeTZpyMlNqquont4m5I-258" vertex="1">
          <mxGeometry x="105" width="70" height="20" as="geometry" />
        </mxCell>
        <mxCell id="UXMgXP9CzdIKXv9W3ZQB-133" value="&lt;font color=&quot;#0000cc&quot;&gt;0..*&lt;/font&gt;" style="text;html=1;align=center;verticalAlign=middle;resizable=0;points=[];autosize=1;" parent="1" vertex="1">
          <mxGeometry x="1825" y="-1210" width="30" height="20" as="geometry" />
        </mxCell>
        <mxCell id="UXMgXP9CzdIKXv9W3ZQB-134" value="&lt;font color=&quot;#b5739d&quot;&gt;0..*&lt;/font&gt;" style="text;html=1;align=center;verticalAlign=middle;resizable=0;points=[];autosize=1;" parent="1" vertex="1">
          <mxGeometry x="1570" y="-1390" width="30" height="20" as="geometry" />
        </mxCell>
        <mxCell id="UXMgXP9CzdIKXv9W3ZQB-136" value="&lt;font color=&quot;#ffb570&quot;&gt;1..1&lt;/font&gt;" style="text;html=1;align=center;verticalAlign=middle;resizable=0;points=[];autosize=1;" parent="1" vertex="1">
          <mxGeometry x="1560" y="-1260" width="40" height="20" as="geometry" />
        </mxCell>
        <mxCell id="UXMgXP9CzdIKXv9W3ZQB-137" value="&lt;font color=&quot;#579191&quot;&gt;0..*&lt;/font&gt;" style="text;html=1;align=center;verticalAlign=middle;resizable=0;points=[];autosize=1;" parent="1" vertex="1">
          <mxGeometry x="1570" y="-1210" width="30" height="20" as="geometry" />
        </mxCell>
        <mxCell id="UXMgXP9CzdIKXv9W3ZQB-138" value="&lt;font color=&quot;#00ff00&quot;&gt;1..1&lt;/font&gt;" style="text;html=1;align=center;verticalAlign=middle;resizable=0;points=[];autosize=1;" parent="1" vertex="1">
          <mxGeometry x="1825" y="-1260" width="40" height="20" as="geometry" />
        </mxCell>
        <mxCell id="Fyv9kKef1HyjdScumFZm-3" style="edgeStyle=orthogonalEdgeStyle;rounded=0;orthogonalLoop=1;jettySize=auto;html=1;exitX=0.25;exitY=0;exitDx=0;exitDy=0;entryX=1;entryY=0.5;entryDx=0;entryDy=0;jumpStyle=arc;jumpSize=15;strokeColor=#0000CC;" edge="1" parent="1" source="wKeTZpyMlNqquont4m5I-213" target="UXMgXP9CzdIKXv9W3ZQB-112">
          <mxGeometry relative="1" as="geometry">
            <Array as="points">
              <mxPoint x="2135" y="-900" />
              <mxPoint x="1960" y="-900" />
              <mxPoint x="1960" y="-1189" />
            </Array>
          </mxGeometry>
        </mxCell>
        <mxCell id="Fyv9kKef1HyjdScumFZm-4" style="edgeStyle=orthogonalEdgeStyle;rounded=0;jumpStyle=arc;jumpSize=15;orthogonalLoop=1;jettySize=auto;html=1;exitX=0.25;exitY=0;exitDx=0;exitDy=0;strokeColor=#0000CC;" edge="1" parent="1" source="wKeTZpyMlNqquont4m5I-213" target="UXMgXP9CzdIKXv9W3ZQB-70">
          <mxGeometry relative="1" as="geometry">
            <mxPoint x="1820" y="-897" as="targetPoint" />
            <Array as="points">
              <mxPoint x="2135" y="-900" />
            </Array>
          </mxGeometry>
        </mxCell>
        <mxCell id="Fyv9kKef1HyjdScumFZm-5" style="edgeStyle=orthogonalEdgeStyle;rounded=0;jumpStyle=arc;jumpSize=15;orthogonalLoop=1;jettySize=auto;html=1;exitX=0.25;exitY=0;exitDx=0;exitDy=0;entryX=0.489;entryY=0.985;entryDx=0;entryDy=0;entryPerimeter=0;strokeColor=#0000CC;" edge="1" parent="1" source="wKeTZpyMlNqquont4m5I-213" target="UXMgXP9CzdIKXv9W3ZQB-99">
          <mxGeometry relative="1" as="geometry">
            <Array as="points">
              <mxPoint x="2135" y="-900" />
              <mxPoint x="2152" y="-900" />
            </Array>
          </mxGeometry>
        </mxCell>
        <mxCell id="Fyv9kKef1HyjdScumFZm-8" value="1..1" style="text;html=1;strokeColor=none;fillColor=none;align=center;verticalAlign=middle;whiteSpace=wrap;rounded=0;" vertex="1" parent="1">
          <mxGeometry x="1695" y="-1150" width="20" height="20" as="geometry" />
        </mxCell>
      </root>
    </mxGraphModel>
  </diagram>
</mxfile>
